# xmcd
#
# Track frame offsets:
#	150
#	18553
#	39700
#	46905
#	63740
#	84100
#	100288
#	119355
#	138503
#	158008
#
# Disc length: 2386 seconds
#
# Revision: 1
# Processed by: cddbd v1.5.1PL0 Copyright (c) Steve Scherf et al.
# Submitted via: CDex 1.50Beta5
#
DISCID=8009500a
DTITLE=マサキオサム - てんこもりだよ!!テレビまんが<CDツイン> Disc 1
DYEAR=2003
DGENRE=
TTITLE0=マサキオサム/ライト&ダーク〜時を救え!
TTITLE1=Little Voice/ハッピーライフ
TTITLE2=ハムちゃんず/ハム太郎とっとこうた またつづきでちゅ!(オリジナルテレビバージョン セリフつき)
TTITLE3=ハムちゃんず/てをつなごう
TTITLE4=堀江美都子/電光超特急ヒカリアン
TTITLE5=ブラッチャーズ/ブラ・Love・ブラッチャー
TTITLE6=遠藤正明/爆闘宣言!ダイガンダー
TTITLE7=きただにひろし/We are the Heroes
TTITLE8=由紀さおり/虹色の砂時計
TTITLE9=由紀さおり/星が歌った物語〜ポロ兄ちゃんとタンちん君〜
EXTD=
EXTT0=
EXTT1=
EXTT2=
EXTT3=
EXTT4=
EXTT5=
EXTT6=
EXTT7=
EXTT8=
EXTT9=
PLAYORDER=
